<?xml version="1.0" encoding="UTF-8"?>
<svg id="Layer_1" data-name="Layer 1" xmlns="http://www.w3.org/2000/svg" viewBox="0 0 500 500">
  <defs>
    <style>
      .cls-1 {
        fill: #0e1329;
      }
    </style>
  </defs>
  <path class="cls-1" d="M273.36,303.47c.19-18.92-16.61-35.9-35.18-35.55-18,.34-33.9,16.53-33.88,34.51,.02,19.45,15.06,34.58,34.41,34.63,18.24,.05,34.47-15.69,34.65-33.59Zm-15.01-17.99c7.33,.67,8.04,7.04,8.97,12.27-.13,4.45-.57,8.68-5.6,8.54-8.37-.24-8.87-7.15-9.52-13.17-.44-4.11,1.72-8.04,6.15-7.64Zm-19.88-11.89c5.19,.51,11.1,.06,10.93,6.73-.15,5.84-5.2,7.34-10.32,7.31-5.36-.02-11.06-.99-10.9-7.64,.15-6.46,6.22-5.8,10.29-6.4Zm-27.91,24.02c.58-5.45,1.56-11.55,8.29-12.28,5.09-.55,6.57,3.75,6.61,8.26-1.21,5.6-1.22,12.34-9.07,12.67-5.68,.24-6.28-4.4-5.83-8.65Zm19.12,32.21c-6.85-.86-12.49-4.46-13.7-11.62-.77-4.54,3.51-6.92,7.4-6.28,6.32,1.04,11.04,4.79,12.63,10.91-.26,4.64-2.32,7.49-6.33,6.99Zm8.72-18.5c-5.34-.37-8.9-3.95-8.49-9.53,.39-5.37,4.54-7.09,9.45-7.23,4.99,.53,8.78,2.85,8.49,8.2-.3,5.44-3.96,8.93-9.45,8.56Zm23.39,6.73c-.98,7.44-7.2,10.03-13.28,11.71-4.56-.13-7.05-2.32-6.67-6.36,.69-7.24,6.04-10.48,12.36-11.51,3.91-.63,8.18,1.62,7.59,6.15Z"/>
  <path class="cls-1" d="M238.71,300c-1.48,.31-2.35,1.29-2,2.7,.18,.74,1.15,1.66,1.9,1.8,1.44,.28,2.48-.69,2.51-2.15,.04-1.46-.92-2.27-2.41-2.35Z"/>
  <path class="cls-1" d="M291.15,302.43c.02,19.45,15.06,34.58,34.41,34.63,18.24,.05,34.47-15.69,34.65-33.59,.19-18.92-16.61-35.9-35.18-35.55-18,.34-33.9,16.53-33.88,34.51Zm6.26-4.82c.58-5.45,1.56-11.55,8.29-12.28,5.09-.55,6.57,3.75,6.61,8.26-1.21,5.6-1.22,12.34-9.07,12.67-5.68,.24-6.28-4.4-5.83-8.65Zm19.12,32.21c-6.85-.86-12.49-4.46-13.7-11.62-.77-4.54,3.51-6.92,7.4-6.28,6.32,1.04,11.04,4.79,12.63,10.91-.26,4.64-2.32,7.49-6.33,6.99Zm8.72-18.5c-5.34-.37-8.9-3.95-8.49-9.53,.39-5.37,4.54-7.09,9.45-7.23,4.99,.53,8.78,2.85,8.49,8.2-.3,5.44-3.96,8.93-9.45,8.56Zm23.39,6.73c-.98,7.44-7.2,10.03-13.28,11.71-4.56-.13-7.05-2.32-6.67-6.36,.69-7.24,6.04-10.48,12.36-11.51,3.91-.63,8.18,1.62,7.59,6.15Zm-3.44-32.57c7.33,.67,8.04,7.04,8.97,12.27-.13,4.45-.57,8.68-5.6,8.54-8.37-.24-8.87-7.15-9.52-13.17-.44-4.11,1.72-8.04,6.15-7.64Zm-8.95-5.17c-.15,5.84-5.2,7.34-10.32,7.31-5.36-.02-11.06-.99-10.9-7.64,.15-6.46,6.22-5.8,10.29-6.4,5.19,.51,11.1,.06,10.93,6.73Z"/>
  <path class="cls-1" d="M325.56,300c-1.48,.31-2.35,1.29-2,2.7,.18,.74,1.15,1.66,1.9,1.8,1.44,.28,2.48-.69,2.51-2.15,.04-1.46-.92-2.27-2.41-2.35Z"/>
  <path class="cls-1" d="M238.19,353.8c-18,.34-33.9,16.53-33.88,34.51,.02,19.45,15.06,34.58,34.41,34.63,18.24,.05,34.47-15.69,34.65-33.59,.19-18.92-16.61-35.9-35.18-35.55Zm.28,5.66c5.19,.51,11.1,.06,10.93,6.73-.15,5.84-5.2,7.34-10.32,7.31-5.36-.02-11.06-.99-10.9-7.64,.15-6.46,6.22-5.8,10.29-6.4Zm-27.91,24.02c.58-5.45,1.56-11.55,8.29-12.28,5.09-.55,6.57,3.75,6.61,8.26-1.21,5.6-1.22,12.34-9.07,12.67-5.68,.24-6.28-4.4-5.83-8.65Zm19.12,32.21c-6.85-.86-12.49-4.46-13.7-11.62-.77-4.54,3.51-6.92,7.4-6.28,6.32,1.04,11.04,4.79,12.63,10.91-.26,4.64-2.32,7.49-6.33,6.99Zm8.72-18.5c-5.34-.37-8.9-3.95-8.49-9.53,.39-5.37,4.54-7.09,9.45-7.23,4.99,.53,8.78,2.85,8.49,8.2-.3,5.44-3.96,8.94-9.45,8.56Zm23.39,6.73c-.98,7.44-7.2,10.03-13.28,11.71-4.56-.13-7.05-2.32-6.67-6.36,.69-7.24,6.04-10.48,12.36-11.51,3.91-.63,8.18,1.62,7.59,6.15Zm5.54-20.3c-.13,4.45-.57,8.68-5.6,8.54-8.37-.24-8.87-7.15-9.52-13.17-.44-4.11,1.72-8.04,6.15-7.64,7.33,.67,8.04,7.04,8.97,12.27Z"/>
  <path class="cls-1" d="M238.71,385.89c-1.48,.31-2.35,1.29-2,2.7,.18,.74,1.15,1.66,1.9,1.8,1.44,.28,2.48-.69,2.51-2.15,.04-1.46-.92-2.27-2.41-2.35Z"/>
  <path class="cls-1" d="M291.15,388.31c.02,19.45,15.06,34.58,34.41,34.63,18.24,.05,34.47-15.69,34.65-33.59,.19-18.92-16.61-35.9-35.18-35.55-18,.34-33.9,16.53-33.88,34.51Zm6.26-4.82c.58-5.45,1.56-11.55,8.29-12.28,5.09-.55,6.57,3.75,6.61,8.26-1.21,5.6-1.22,12.34-9.07,12.67-5.68,.24-6.28-4.4-5.83-8.65Zm19.12,32.21c-6.85-.86-12.49-4.46-13.7-11.62-.77-4.54,3.51-6.92,7.4-6.28,6.32,1.04,11.04,4.79,12.63,10.91-.26,4.64-2.32,7.49-6.33,6.99Zm8.72-18.5c-5.34-.37-8.9-3.95-8.49-9.53,.39-5.37,4.54-7.09,9.45-7.23,4.99,.53,8.78,2.85,8.49,8.2-.3,5.44-3.96,8.94-9.45,8.56Zm23.39,6.73c-.98,7.44-7.2,10.03-13.28,11.71-4.56-.13-7.05-2.32-6.67-6.36,.69-7.24,6.04-10.48,12.36-11.51,3.91-.63,8.18,1.62,7.59,6.15Zm-3.44-32.57c7.33,.67,8.04,7.04,8.97,12.27-.13,4.45-.57,8.68-5.6,8.54-8.37-.24-8.87-7.15-9.52-13.17-.44-4.11,1.72-8.04,6.15-7.64Zm-8.95-5.17c-.15,5.84-5.2,7.34-10.32,7.31-5.36-.02-11.06-.99-10.9-7.64,.15-6.46,6.22-5.8,10.29-6.4,5.19,.51,11.1,.06,10.93,6.73Z"/>
  <path class="cls-1" d="M325.56,385.89c-1.48,.31-2.35,1.29-2,2.7,.18,.74,1.15,1.66,1.9,1.8,1.44,.28,2.48-.69,2.51-2.15,.04-1.46-.92-2.27-2.41-2.35Z"/>
  <path class="cls-1" d="M273.36,130.74c.19-18.92-16.61-35.9-35.18-35.55-18,.34-33.9,16.53-33.88,34.51,.02,19.45,15.06,34.58,34.41,34.63,18.24,.05,34.47-15.69,34.65-33.59Zm-15.01-17.99c7.33,.67,8.04,7.04,8.97,12.27-.13,4.45-.57,8.68-5.6,8.54-8.37-.24-8.87-7.15-9.52-13.17-.44-4.11,1.72-8.04,6.15-7.64Zm-19.88-11.89c5.19,.51,11.1,.06,10.93,6.73-.15,5.84-5.2,7.34-10.32,7.31-5.36-.02-11.06-.99-10.9-7.64,.15-6.46,6.22-5.8,10.29-6.4Zm-27.91,24.02c.58-5.45,1.56-11.55,8.29-12.28,5.09-.55,6.57,3.75,6.61,8.26-1.21,5.6-1.22,12.34-9.07,12.67-5.68,.24-6.28-4.4-5.83-8.65Zm19.12,32.21c-6.85-.86-12.49-4.46-13.7-11.62-.77-4.54,3.51-6.92,7.4-6.28,6.32,1.04,11.04,4.79,12.63,10.91-.26,4.64-2.32,7.49-6.33,6.99Zm8.72-18.5c-5.34-.37-8.9-3.95-8.49-9.53,.39-5.37,4.54-7.09,9.45-7.23,4.99,.53,8.78,2.85,8.49,8.2-.3,5.44-3.96,8.93-9.45,8.56Zm23.39,6.73c-.98,7.44-7.2,10.03-13.28,11.71-4.56-.13-7.05-2.32-6.67-6.36,.69-7.24,6.04-10.48,12.36-11.51,3.91-.63,8.18,1.62,7.59,6.15Z"/>
  <path class="cls-1" d="M238.71,127.27c-1.48,.31-2.35,1.29-2,2.7,.18,.74,1.15,1.66,1.9,1.8,1.44,.28,2.48-.69,2.51-2.15,.04-1.46-.92-2.27-2.41-2.35Z"/>
  <path class="cls-1" d="M325.57,164.32c18.24,.05,34.47-15.69,34.65-33.59,.19-18.92-16.61-35.9-35.18-35.55-18,.34-33.9,16.53-33.88,34.51,.02,19.45,15.06,34.58,34.41,34.63Zm-9.03-7.24c-6.85-.86-12.49-4.46-13.7-11.62-.77-4.54,3.51-6.92,7.4-6.28,6.32,1.04,11.04,4.79,12.63,10.91-.26,4.64-2.32,7.49-6.33,6.99Zm8.72-18.5c-5.34-.37-8.9-3.95-8.49-9.53,.39-5.37,4.54-7.09,9.45-7.23,4.99,.53,8.78,2.85,8.49,8.2-.3,5.44-3.96,8.93-9.45,8.56Zm23.39,6.73c-.98,7.44-7.2,10.03-13.28,11.71-4.56-.13-7.05-2.32-6.67-6.36,.69-7.24,6.04-10.48,12.36-11.51,3.91-.63,8.18,1.62,7.59,6.15Zm-3.44-32.57c7.33,.67,8.04,7.04,8.97,12.27-.13,4.45-.57,8.68-5.6,8.54-8.37-.24-8.87-7.15-9.52-13.17-.44-4.11,1.72-8.04,6.15-7.64Zm-19.88-11.89c5.19,.51,11.1,.06,10.93,6.73-.15,5.84-5.2,7.34-10.32,7.31-5.36-.02-11.06-.99-10.9-7.64,.15-6.46,6.22-5.8,10.29-6.4Zm-27.91,24.02c.58-5.45,1.56-11.55,8.29-12.28,5.09-.55,6.57,3.75,6.61,8.26-1.21,5.6-1.22,12.34-9.07,12.67-5.68,.24-6.28-4.4-5.83-8.65Z"/>
  <path class="cls-1" d="M325.56,127.27c-1.48,.31-2.35,1.29-2,2.7,.18,.74,1.15,1.66,1.9,1.8,1.44,.28,2.48-.69,2.51-2.15,.04-1.46-.92-2.27-2.41-2.35Z"/>
  <path class="cls-1" d="M273.36,216.62c.19-18.92-16.61-35.9-35.18-35.55-18,.34-33.9,16.53-33.88,34.51,.02,19.45,15.06,34.58,34.41,34.63,18.24,.05,34.47-15.69,34.65-33.59Zm-15.01-17.99c7.33,.67,8.04,7.04,8.97,12.27-.13,4.45-.57,8.68-5.6,8.54-8.37-.24-8.87-7.15-9.52-13.17-.44-4.11,1.72-8.04,6.15-7.64Zm-19.88-11.89c5.19,.51,11.1,.06,10.93,6.73-.15,5.84-5.2,7.34-10.32,7.31-5.36-.02-11.06-.99-10.9-7.64,.15-6.46,6.22-5.8,10.29-6.4Zm-27.91,24.02c.58-5.45,1.56-11.55,8.29-12.28,5.09-.55,6.57,3.75,6.61,8.26-1.21,5.6-1.22,12.34-9.07,12.67-5.68,.24-6.28-4.4-5.83-8.65Zm19.12,32.21c-6.85-.86-12.49-4.46-13.7-11.62-.77-4.54,3.51-6.92,7.4-6.28,6.32,1.04,11.04,4.79,12.63,10.91-.26,4.64-2.32,7.49-6.33,6.99Zm8.72-18.5c-5.34-.37-8.9-3.95-8.49-9.53,.39-5.37,4.54-7.09,9.45-7.23,4.99,.53,8.78,2.85,8.49,8.2-.3,5.44-3.96,8.93-9.45,8.56Zm23.39,6.73c-.98,7.44-7.2,10.03-13.28,11.71-4.56-.13-7.05-2.32-6.67-6.36,.69-7.24,6.04-10.48,12.36-11.51,3.91-.63,8.18,1.62,7.59,6.15Z"/>
  <path class="cls-1" d="M238.71,213.16c-1.48,.31-2.35,1.29-2,2.7,.18,.74,1.15,1.66,1.9,1.8,1.44,.28,2.48-.69,2.51-2.15,.04-1.46-.92-2.27-2.41-2.35Z"/>
  <path class="cls-1" d="M372.66,215.93c.19-18.69-12.26-35.79-29.24-43.12,16.79-7.19,29.05-23.82,29.24-42.76,.25-24.57-21.34-46.41-46.36-46.9-19.25-.38-36.85,12.16-44.11,29.28-7.14-16.53-23.97-28.91-42.74-29.28-24.97-.49-47.18,20.74-47.62,45.52-.35,19.39,11.81,36.83,28.77,44.2-16.33,7.15-28.44,23.45-28.77,41.68-.36,19.82,12.35,37.61,29.9,44.68-16.89,6.88-29.56,23.52-29.9,42.17-.35,19.39,11.81,36.83,28.77,44.2-16.33,7.15-28.44,23.45-28.77,41.68-.45,25.23,20.25,47.18,45.19,47.9,19.92,.58,37.82-11.96,45.21-29.46,6.9,16.64,23.1,28.92,41.64,29.46,25.96,.76,48.53-20.77,48.79-46.52,.19-18.69-12.26-35.79-29.24-43.12,16.79-7.19,29.05-23.82,29.24-42.76,.19-19.11-12.82-36.56-30.38-43.6,17.38-6.91,30.18-23.88,30.38-43.24Zm-47.43-125.22c21.14-.23,39.36,17.75,39.4,38.87,.04,22.74-15.93,38.87-38.59,38.99-22.92,.11-39.24-15.76-39.24-38.16,0-22.36,16.54-39.45,38.43-39.69Zm-43,56.41c4.75,11.46,13.92,20.84,25.23,25.75-11.25,4.92-20.49,14.19-25.26,25.44-4.86-11.26-14.22-20.58-25.62-25.5,11.47-4.91,20.82-14.23,25.65-25.69Zm0,85.88c4.91,11.84,14.53,21.47,26.36,26.23-11.75,4.79-21.46,14.3-26.39,25.93-5.02-11.64-14.85-21.21-26.78-25.99,11.99-4.77,21.81-14.33,26.81-26.17Zm-82.28-102.6c0-22.36,16.54-39.45,38.43-39.69,21.14-.23,39.36,17.75,39.4,38.87,.04,22.74-15.93,38.87-38.59,38.99-22.92,.11-39.24-15.76-39.24-38.16Zm0,85.88c0-22.36,16.54-39.45,38.43-39.69,21.14-.23,39.36,17.75,39.4,38.87,.04,22.74-15.93,38.87-38.59,38.99-22.92,.11-39.24-15.76-39.24-38.16Zm0,86.85c0-22.36,16.54-39.45,38.43-39.69,21.14-.23,39.36,17.75,39.4,38.87,.04,22.74-15.93,38.87-38.59,38.99-22.92,.11-39.24-15.76-39.24-38.16Zm39.24,124.05c-22.92,.11-39.24-15.76-39.24-38.16,0-22.36,16.54-39.45,38.43-39.69,21.14-.23,39.36,17.75,39.4,38.87,.04,22.74-15.93,38.87-38.59,38.99Zm43.01-56.14c-4.86-11.26-14.22-20.58-25.62-25.5,11.47-4.91,20.82-14.23,25.65-25.69,4.75,11.46,13.92,20.84,25.23,25.75-11.25,4.92-20.49,14.19-25.26,25.44Zm82.43,17.15c.04,22.74-15.93,38.87-38.59,38.99-22.92,.11-39.24-15.76-39.24-38.16,0-22.36,16.54-39.45,38.43-39.69,21.14-.23,39.36,17.75,39.4,38.87Zm0-85.88c.04,22.74-15.93,38.87-38.59,38.99-22.92,.11-39.24-15.76-39.24-38.16,0-22.36,16.54-39.45,38.43-39.69,21.14-.23,39.36,17.75,39.4,38.87Zm-38.59-47.86c-22.92,.11-39.24-15.76-39.24-38.16,0-22.36,16.54-39.45,38.43-39.69,21.14-.23,39.36,17.75,39.4,38.87,.04,22.74-15.93,38.87-38.59,38.99Z"/>
  <path class="cls-1" d="M325.04,181.07c-18,.34-33.9,16.53-33.88,34.51,.02,19.45,15.06,34.58,34.41,34.63,18.24,.05,34.47-15.69,34.65-33.59,.19-18.92-16.61-35.9-35.18-35.55Zm.28,5.66c5.19,.51,11.1,.06,10.93,6.73-.15,5.84-5.2,7.34-10.32,7.31-5.36-.02-11.06-.99-10.9-7.64,.15-6.46,6.22-5.8,10.29-6.4Zm-27.91,24.02c.58-5.45,1.56-11.55,8.29-12.28,5.09-.55,6.57,3.75,6.61,8.26-1.21,5.6-1.22,12.34-9.07,12.67-5.68,.24-6.28-4.4-5.83-8.65Zm19.12,32.21c-6.85-.86-12.49-4.46-13.7-11.62-.77-4.54,3.51-6.92,7.4-6.28,6.32,1.04,11.04,4.79,12.63,10.91-.26,4.64-2.32,7.49-6.33,6.99Zm8.72-18.5c-5.34-.37-8.9-3.95-8.49-9.53,.39-5.37,4.54-7.09,9.45-7.23,4.99,.53,8.78,2.85,8.49,8.2-.3,5.44-3.96,8.93-9.45,8.56Zm23.39,6.73c-.98,7.44-7.2,10.03-13.28,11.71-4.56-.13-7.05-2.32-6.67-6.36,.69-7.24,6.04-10.48,12.36-11.51,3.91-.63,8.18,1.62,7.59,6.15Zm-.06-11.77c-8.37-.24-8.87-7.15-9.52-13.17-.44-4.11,1.72-8.04,6.15-7.64,7.33,.67,8.04,7.04,8.97,12.27-.13,4.45-.57,8.68-5.6,8.54Z"/>
  <path class="cls-1" d="M325.56,213.16c-1.48,.31-2.35,1.29-2,2.7,.18,.74,1.15,1.66,1.9,1.8,1.44,.28,2.48-.69,2.51-2.15,.04-1.46-.92-2.27-2.41-2.35Z"/>
</svg>